<?xml version="1.0" encoding="utf-8"?>
<svg version="1.1" xmlns:xlink="http://www.w3.org/1999/xlink" width="19px" height="17px" xmlns="http://www.w3.org/2000/svg">
  <g transform="matrix(1 0 0 1 -162 -3425 )">
    <path d="M 14.3984375 15.373046875  C 14.54306891025641 15.232855902777777  14.615384615384617 15.066840277777777  14.615384615384617 14.875  C 14.615384615384617 14.683159722222223  14.54306891025641 14.517144097222223  14.3984375 14.376953125  C 14.253806089743591 14.236762152777777  14.082532051282055 14.166666666666668  13.884615384615383 14.166666666666668  C 13.686698717948717 14.166666666666668  13.51542467948718 14.236762152777777  13.37079326923077 14.376953125  C 13.226161858974361 14.517144097222223  13.153846153846153 14.683159722222223  13.153846153846153 14.875  C 13.153846153846153 15.066840277777777  13.226161858974361 15.232855902777777  13.37079326923077 15.373046875  C 13.51542467948718 15.513237847222223  13.686698717948717 15.583333333333332  13.884615384615383 15.583333333333332  C 14.082532051282055 15.583333333333332  14.253806089743591 15.513237847222223  14.3984375 15.373046875  Z M 17.321514423076923 15.373046875  C 17.466145833333332 15.232855902777777  17.53846153846154 15.066840277777777  17.53846153846154 14.875  C 17.53846153846154 14.683159722222223  17.466145833333332 14.517144097222223  17.321514423076923 14.376953125  C 17.176883012820515 14.236762152777777  17.005608974358974 14.166666666666668  16.807692307692307 14.166666666666668  C 16.609775641025642 14.166666666666668  16.438501602564102 14.236762152777777  16.293870192307693 14.376953125  C 16.149238782051285 14.517144097222223  16.076923076923077 14.683159722222223  16.076923076923077 14.875  C 16.076923076923077 15.066840277777777  16.149238782051285 15.232855902777777  16.293870192307693 15.373046875  C 16.438501602564102 15.513237847222223  16.609775641025642 15.583333333333332  16.807692307692307 15.583333333333332  C 17.005608974358974 15.583333333333332  17.176883012820515 15.513237847222223  17.321514423076923 15.373046875  Z M 18.68028846153846 11.643229166666666  C 18.89342948717949 11.849826388888886  19 12.100694444444445  19 12.395833333333334  L 19 15.9375  C 19 16.23263888888889  18.89342948717949 16.483506944444443  18.68028846153846 16.690104166666668  C 18.467147435897438 16.89670138888889  18.208333333333336 17  17.903846153846153 17  L 1.0961538461538463 17  C 0.7916666666666667 17  0.5328525641025642 16.89670138888889  0.31971153846153844 16.690104166666668  C 0.1065705128205128 16.483506944444443  0 16.23263888888889  0 15.9375  L 0 12.395833333333334  C 0 12.100694444444445  0.1065705128205128 11.849826388888886  0.31971153846153844 11.643229166666666  C 0.5328525641025642 11.436631944444445  0.7916666666666667 11.333333333333334  1.0961538461538463 11.333333333333334  L 6.405649038461538 11.333333333333334  L 7.947115384615385 12.838541666666668  C 8.388621794871796 13.25173611111111  8.90625 13.458333333333332  9.5 13.458333333333332  C 10.09375 13.458333333333332  10.611378205128206 13.25173611111111  11.052884615384617 12.838541666666668  L 12.60576923076923 11.333333333333334  L 17.903846153846153 11.333333333333334  C 18.208333333333336 11.333333333333334  18.467147435897438 11.436631944444445  18.68028846153846 11.643229166666666  Z M 14.615384615384617 5.666666666666667  C 14.935096153846153 5.666666666666667  15.15965544871795 5.810546875  15.2890625 6.098307291666667  C 15.418469551282055 6.400824652777778  15.365184294871797 6.659071180555555  15.12920673076923 6.873046875  L 10.013822115384617 11.831380208333334  C 9.876802884615383 11.971571180555555  9.705528846153847 12.041666666666666  9.5 12.041666666666666  C 9.294471153846153 12.041666666666666  9.123197115384615 11.971571180555555  8.986177884615385 11.831380208333334  L 3.870793269230769 6.873046875  C 3.6348157051282053 6.659071180555555  3.5815304487179493 6.400824652777778  3.7109375 6.098307291666667  C 3.840344551282052 5.810546875  4.064903846153846 5.666666666666667  4.384615384615385 5.666666666666667  L 7.307692307692308 5.666666666666667  L 7.307692307692308 0.7083333333333327  C 7.307692307692308 0.5164930555555532  7.380008012820514 0.35047743055555325  7.524639423076923 0.2102864583333327  C 7.669270833333334 0.07009548611111216  7.840544871794872 0  8.038461538461538 0  L 10.96153846153846 0  C 11.159455128205128 0  11.330729166666668 0.07009548611111216  11.475360576923077 0.2102864583333327  C 11.619991987179487 0.35047743055555325  11.692307692307693 0.5164930555555532  11.692307692307693 0.7083333333333327  L 11.692307692307693 5.666666666666667  L 14.615384615384617 5.666666666666667  Z " fill-rule="nonzero" fill="#169bd5" stroke="none" transform="matrix(1 0 0 1 162 3425 )" />
  </g>
</svg>